{
    "asset": {
        "copyright": "2020 (c) Adobe Inc.",
        "generator": "Adobe Dimension - ef4f41a6842c60acc27c15e21adfa2a5f9da2982",
        "version": "2.0",
        "extensions": {
            "KHR_xmp": {
                "packet": 0
            }
        }
    },
    "accessors": [
        {
            "bufferView": 0,
            "componentType": 5126,
            "count": 24,
            "type": "VEC3",
            "max": [
                0.051000017672777179,
                0.10000001639127732,
                0.010000004433095456
            ],
            "min": [
                -0.051000017672777179,
                -0.10000001639127732,
                -0.010000004433095456
            ]
        },
        {
            "bufferView": 1,
            "componentType": 5126,
            "count": 24,
            "type": "VEC3"
        },
        {
            "bufferView": 2,
            "componentType": 5126,
            "count": 24,
            "type": "VEC2"
        },
        {
            "bufferView": 3,
            "componentType": 5125,
            "count": 36,
            "type": "SCALAR",
            "max": [
                23.0
            ],
            "min": [
                0.0
            ]
        }
    ],
    "bufferViews": [
        {
            "buffer": 0,
            "byteOffset": 0,
            "byteLength": 288,
            "target": 34962
        },
        {
            "buffer": 0,
            "byteOffset": 288,
            "byteLength": 288,
            "target": 34962
        },
        {
            "buffer": 0,
            "byteOffset": 576,
            "byteLength": 192,
            "target": 34962
        },
        {
            "buffer": 0,
            "byteOffset": 768,
            "byteLength": 144,
            "target": 34963
        }
    ],
    "buffers": [
        {
            "byteLength": 912,
            "uri": "When_the Trees Were High_binary.bin"
        }
    ],
    "cameras": [
        {
            "perspective": {
                "znear": 0.000010000000656873454,
                "yfov": 0.6024156808853149,
                "zfar": 2.0,
                "aspectRatio": 1.3333333730697632
            },
            "type": "perspective",
            "name": "render_camera"
        }
    ],
    "images": [
        {
            "name": "texture6548",
            "uri": "When_the Trees Were High_images/texture6548.jpg",
            "mimeType": "image/jpeg"
        }
    ],
    "materials": [
        {
            "pbrMetallicRoughness": {
                "baseColorTexture": {
                    "index": 0
                },
                "metallicFactor": 0.0,
                "roughnessFactor": 0.4000000059604645
            },
            "name": "Texture",
            "doubleSided": true
        }
    ],
    "meshes": [
        {
            "name": "Object_4",
            "primitives": [
                {
                    "attributes": {
                        "POSITION": 0,
                        "NORMAL": 1,
                        "TEXCOORD_0": 2
                    },
                    "indices": 3,
                    "material": 0
                }
            ]
        }
    ],
    "nodes": [
        {
            "translation": [
                0.3898603022098541,
                0.25826388597488406,
                0.3898603022098541
            ],
            "rotation": [
                -0.12059047073125839,
                0.379409521818161,
                0.04995020851492882,
                0.9159756302833557
            ],
            "scale": [
                1.0000001192092896,
                1.0,
                1.0
            ],
            "camera": 0,
            "name": "render_camera_n3d"
        },
        {
            "children": [
                2
            ],
            "translation": [
                0.009141174145042897,
                0.04418416693806648,
                0.0051061795093119148
            ],
            "rotation": [
                0.005951517727226019,
                0.325555682182312,
                0.006382190156728029,
                0.945482611656189
            ],
            "scale": [
                1.0,
                0.9999992847442627,
                0.9999999403953552
            ],
            "name": "80s_vhs_tape_box (1)"
        },
        {
            "children": [
                3
            ],
            "rotation": [
                -0.7071067690849304,
                0.0,
                0.0,
                0.7071067690849304
            ],
            "name": "Sketchfab_model"
        },
        {
            "children": [
                4
            ],
            "name": "root"
        },
        {
            "children": [
                5
            ],
            "rotation": [
                0.7071067690849304,
                0.0,
                0.0,
                0.7071067690849304
            ],
            "name": "GLTF_SceneRootNode"
        },
        {
            "children": [
                6
            ],
            "translation": [
                0.0,
                0.09999998658895493,
                0.0
            ],
            "name": "VHS_Box_0"
        },
        {
            "mesh": 0,
            "name": "Object_4"
        }
    ],
    "samplers": [
        {}
    ],
    "scenes": [
        {
            "nodes": [
                0,
                1
            ],
            "name": "scene"
        }
    ],
    "textures": [
        {
            "name": "texture6548",
            "sampler": 0,
            "source": 0
        }
    ],
    "scene": 0,
    "extensions": {
        "KHR_xmp": {
            "@context": {
                "dc": "http://purl.org/dc/elements/1.1/"
            },
            "packets": [
                {
                    "dc:date": "2024-07-09T00:46:50.039+03:00",
                    "dc:format": "model/gltf+json",
                    "dc:title": "When the Trees Were High.dn",
                    "xmp:CreatorTool": "Adobe Dimension"
                }
            ]
        }
    },
    "extensionsUsed": [
        "KHR_xmp"
    ]
}